HIERARCHY
ROOT joint_Root
{
	OFFSET 0.0 0.0 0.0
	CHANNELS 6 Xposition Yposition Zposition Zrotation Xrotation Yrotation 
	JOINT Hips
	{
		OFFSET -0.726466 93.3139 -2.00062
		CHANNELS 6 Xposition Yposition Zposition Zrotation Xrotation Yrotation 
		JOINT Spine
		{
			OFFSET 15.7357 0.0 0.0
			CHANNELS 6 Xposition Yposition Zposition Zrotation Xrotation Yrotation 
			JOINT Chest
			{
				OFFSET 8.98455 -0.406207 0.0
				CHANNELS 6 Xposition Yposition Zposition Zrotation Xrotation Yrotation 
				JOINT Neck
				{
					OFFSET 16.3773 0.0 0.0
					CHANNELS 6 Xposition Yposition Zposition Zrotation Xrotation Yrotation 
					JOINT Head
					{
						OFFSET 6.45672 0.0 0.0
						CHANNELS 6 Xposition Yposition Zposition Zrotation Xrotation Yrotation 
						End Site
						{
							OFFSET 0.0 0.0 0.0
						}
					}
				}
				JOINT Shoulder_L
				{
					OFFSET 12.9942 -0.242716 4.98039
					CHANNELS 6 Xposition Yposition Zposition Zrotation Xrotation Yrotation 
					JOINT UpperArm_L
					{
						OFFSET 5.34809 0.0 0.0
						CHANNELS 6 Xposition Yposition Zposition Zrotation Xrotation Yrotation 
						JOINT LowerArm_L
						{
							OFFSET 24.3286 1.87007e-05 0.0
							CHANNELS 6 Xposition Yposition Zposition Zrotation Xrotation Yrotation 
							JOINT Hand_L
							{
								OFFSET 22.2916 0.0 0.0
								CHANNELS 6 Xposition Yposition Zposition Zrotation Xrotation Yrotation 
								End Site
								{
									OFFSET 0.0 0.0 0.0
								}
							}
						}
					}
				}
				JOINT Shoulder_R
				{
					OFFSET 12.9945 -0.242716 -4.98039
					CHANNELS 6 Xposition Yposition Zposition Zrotation Xrotation Yrotation 
					JOINT UpperArm_R
					{
						OFFSET -5.34813 0.0 0.0
						CHANNELS 6 Xposition Yposition Zposition Zrotation Xrotation Yrotation 
						JOINT LowerArm_R
						{
							OFFSET -24.3289 0.000322201 0.0
							CHANNELS 6 Xposition Yposition Zposition Zrotation Xrotation Yrotation 
							JOINT Hand_R
							{
								OFFSET -22.2915 -0.000108084 0.0
								CHANNELS 6 Xposition Yposition Zposition Zrotation Xrotation Yrotation 
								End Site
								{
									OFFSET 0.0 0.0 0.0
								}
							}
						}
					}
				}
			}
		}
		JOINT UpperLeg_L
		{
			OFFSET -2.19248 -6.46944 0.0
			CHANNELS 6 Xposition Yposition Zposition Zrotation Xrotation Yrotation 
			JOINT LowerLeg_L
			{
				OFFSET 39.0811 0.0 -1.23785e-05
				CHANNELS 6 Xposition Yposition Zposition Zrotation Xrotation Yrotation 
				JOINT Foot_L
				{
					OFFSET 40.9854 0.0 -1.26872e-05
					CHANNELS 6 Xposition Yposition Zposition Zrotation Xrotation Yrotation 
					JOINT Toes_L
					{
						OFFSET 11.7543 0.0 0.0
						CHANNELS 6 Xposition Yposition Zposition Zrotation Xrotation Yrotation 
						End Site
						{
							OFFSET 0.0 0.0 0.0
						}
					}
				}
			}
		}
		JOINT UpperLeg_R
		{
			OFFSET -2.19251 6.46944 0.0
			CHANNELS 6 Xposition Yposition Zposition Zrotation Xrotation Yrotation 
			JOINT LowerLeg_R
			{
				OFFSET -39.0811 -0.00228153 -0.0401928
				CHANNELS 6 Xposition Yposition Zposition Zrotation Xrotation Yrotation 
				JOINT Foot_R
				{
					OFFSET -40.9854 0.0 0.0
					CHANNELS 6 Xposition Yposition Zposition Zrotation Xrotation Yrotation 
					JOINT Toes_R
					{
						OFFSET -11.7543 0.0 0.0
						CHANNELS 6 Xposition Yposition Zposition Zrotation Xrotation Yrotation 
						End Site
						{
							OFFSET 0.0 0.0 0.0
						}
					}
				}
			}
		}
	}
}
MOTION
Frames:	9
Frame Time:	0.0333333
0.000000 0.000000 0.000000 0.000000 0.000000 -0.000000 1.383450 82.614500 -78.445900 85.720300 -5.713850 -7.849910 15.735700 0.000005 -0.000001 101.054000 82.591500 -97.867400 8.984550 -0.406207 -0.000000 6.712140 2.802600 6.202040 16.377300 -0.000001 -0.000001 -1.955210 0.239369 1.203580 6.456720 -0.000001 -0.000000 -0.674642 1.737770 -8.438020 12.994200 -0.242716 4.980390 -89.044900 -2.436240 -68.589000 5.348090 -0.000007 -0.000001 -68.276500 31.141300 12.768200 24.328600 0.000019 0.000005 23.154100 11.381800 -65.240200 22.291600 -0.000001 0.000005 -11.126200 5.667010 -16.964100 12.994500 -0.242716 -4.980390 88.250000 5.257230 -71.560500 -5.348130 -0.000001 -0.000004 -50.047100 21.948000 -34.954700 -24.328900 0.000322 -0.000009 2.557410 -0.635158 -103.997000 -22.291500 -0.000108 -0.000004 6.126790 5.593130 -10.944300 -2.192480 -6.469440 -0.000000 -178.452000 -11.195800 -40.556300 39.081100 -0.000007 -0.000012 -0.529050 -0.529519 135.025000 40.985400 -0.000006 -0.000013 13.805900 -6.489140 -31.649700 11.754300 -0.000000 0.000003 -0.007801 -0.086406 -20.095100 -2.192510 6.469440 -0.000001 -172.574000 2.653490 158.437000 -39.081100 -0.002282 -0.040193 0.190326 -0.125197 56.212500 -40.985400 0.000008 0.000006 11.597400 -1.640700 -87.126500 -11.754300 -0.000006 -0.000006 -1.119420 -1.272930 -21.794400
0.000000 0.000000 0.000000 0.000000 0.000000 -0.000000 2.036380 85.186200 -64.182900 90.110500 -8.115470 -8.523800 15.735700 0.000005 -0.000001 116.964000 82.773600 -115.897000 8.984550 -0.406207 -0.000000 5.081890 6.514660 1.844050 16.377300 -0.000001 -0.000001 -1.288650 -0.587487 1.871130 6.456720 -0.000001 -0.000000 0.128182 -2.275330 -5.644970 12.994200 -0.242716 4.980390 -87.936500 -4.742420 -66.453900 5.348090 -0.000007 -0.000001 -66.765200 33.930200 18.697700 24.328600 0.000019 0.000005 11.848400 4.162310 -70.924400 22.291600 -0.000001 0.000005 -8.701920 5.650050 -15.018600 12.994500 -0.242716 -4.980390 89.002400 3.075700 -72.020000 -5.348130 -0.000001 -0.000004 -51.285200 22.144200 -39.102200 -24.328900 0.000322 -0.000009 -3.036640 1.232840 -112.058000 -22.291500 -0.000108 -0.000004 7.292650 5.575730 -9.985600 -2.192480 -6.469440 -0.000000 174.632000 -8.614560 -47.375200 39.081100 -0.000007 -0.000012 -0.391706 -0.268526 124.433000 40.985400 -0.000006 -0.000013 11.247800 -8.330060 -44.169500 11.754300 -0.000000 0.000003 -0.008153 -0.089283 -20.212600 -2.192510 6.469440 -0.000001 179.546000 4.215760 171.618000 -39.081100 -0.002282 -0.040193 0.153296 -0.148140 45.363700 -40.985400 0.000008 0.000006 12.388500 3.724370 -78.848300 -11.754300 -0.000006 -0.000006 -0.081767 -0.396856 -33.056900
0.000000 0.000000 0.000000 0.000000 0.000000 -0.000000 2.573160 89.209800 -49.693400 92.873400 -9.949770 -8.961030 15.735700 0.000005 -0.000001 129.717000 82.512000 -130.236000 8.984550 -0.406207 -0.000000 3.842120 9.574420 -1.359710 16.377300 -0.000001 -0.000001 -0.266472 -0.919007 2.292270 6.456720 -0.000001 -0.000000 0.686053 -5.378900 -3.774320 12.994200 -0.242716 4.980390 -86.586000 -7.294030 -64.832600 5.348090 -0.000007 -0.000001 -66.964600 32.064900 23.416400 24.328600 0.000019 0.000005 10.103200 2.091080 -78.427900 22.291600 -0.000001 0.000005 -8.703170 5.632740 -13.548100 12.994500 -0.242716 -4.980390 89.302700 2.154110 -72.058800 -5.348130 -0.000001 -0.000004 -51.156600 24.676300 -39.633900 -24.328900 0.000322 -0.000009 -3.358630 1.716190 -117.040000 -22.291500 -0.000108 -0.000004 5.937660 5.555430 -8.954700 -2.192480 -6.469440 -0.000000 171.086000 -6.299620 -49.585200 39.081100 -0.000007 -0.000012 -0.123852 -0.034845 105.719000 40.985400 -0.000006 -0.000013 8.715150 -12.649800 -53.736200 11.754300 -0.000000 0.000003 -0.007283 -0.082086 -19.918700 -2.192510 6.469440 -0.000001 173.082000 6.429440 -177.874000 -39.081100 -0.002282 -0.040193 0.100016 -0.148574 33.064100 -40.985400 0.000008 0.000006 10.201100 11.542900 -53.891900 -11.754300 -0.000006 -0.000006 -0.292961 -0.780924 -50.899200
0.000000 0.000000 0.000000 0.000000 0.000000 -0.000000 2.443370 92.896400 -35.436100 91.656700 -9.103090 -6.961800 15.735700 0.000005 -0.000001 132.502000 81.828900 -133.008000 8.984550 -0.406207 -0.000000 4.398300 11.037900 -1.439960 16.377300 -0.000001 -0.000001 0.499332 -1.287780 2.522110 6.456720 -0.000001 -0.000000 1.470170 -7.424710 -2.686740 12.994200 -0.242716 4.980390 -85.316700 -9.826170 -64.357700 5.348090 -0.000007 -0.000001 -67.941100 28.860500 26.974900 24.328600 0.000019 0.000005 8.721290 0.750058 -85.128800 22.291600 -0.000001 0.000005 -7.426960 5.615710 -12.333600 12.994500 -0.242716 -4.980390 89.388500 1.896340 -72.123800 -5.348130 -0.000001 -0.000004 -51.256200 28.243800 -38.675200 -24.328900 0.000322 -0.000009 -1.769100 0.957270 -118.411000 -22.291500 -0.000108 -0.000004 3.673260 5.522700 -7.476600 -2.192480 -6.469440 -0.000000 173.515000 -4.468550 -45.315700 39.081100 -0.000007 -0.000012 0.037365 -0.004620 82.939300 40.985400 -0.000006 -0.000013 8.612330 -13.908600 -59.988300 11.754300 -0.000000 0.000003 -0.007261 -0.081896 -19.911000 -2.192510 6.469440 -0.000001 170.265000 9.712900 -167.407000 -39.081100 -0.002282 -0.040193 0.037627 -0.081166 22.915000 -40.985400 0.000008 0.000006 -5.029340 10.650400 -27.755900 -11.754300 -0.000006 -0.000006 -0.017720 -0.154316 -22.873900
0.000000 0.000000 0.000000 0.000000 0.000000 -0.000000 1.984690 95.444200 -22.142700 90.614100 -8.980720 -8.781580 15.735700 0.000005 -0.000001 140.637000 82.127700 -141.308000 8.984550 -0.406207 -0.000000 2.341910 12.195600 -1.593860 16.377300 -0.000001 -0.000001 0.651805 -1.579760 1.955090 6.456720 -0.000001 -0.000000 2.913360 -8.742050 -1.967330 12.994200 -0.242716 4.980390 -84.451900 -11.459700 -63.945300 5.348090 -0.000007 -0.000001 -68.177600 26.280700 29.268100 24.328600 0.000019 0.000005 4.796000 -0.089302 -91.069500 22.291600 -0.000001 0.000005 -6.055540 5.602010 -11.463900 12.994500 -0.242716 -4.980390 89.651900 1.090180 -72.290500 -5.348130 -0.000001 -0.000004 -51.932300 32.358000 -36.733100 -24.328900 0.000322 -0.000009 -1.539060 0.771365 -116.613000 -22.291500 -0.000108 -0.000004 3.743570 5.505930 -6.774000 -2.192480 -6.469440 -0.000000 175.822000 -4.410630 -41.235500 39.081100 -0.000007 -0.000012 0.053784 -0.038058 54.713500 40.985400 -0.000006 -0.000013 7.070600 -7.938320 -64.006700 11.754300 -0.000000 0.000003 -0.006475 -0.075100 -19.633700 -2.192510 6.469440 -0.000001 169.547000 11.373200 -165.124000 -39.081100 -0.002282 -0.040193 0.090974 -0.176058 26.470300 -40.985400 0.000008 0.000006 -3.408860 5.827310 -30.343200 -11.754300 -0.000006 -0.000006 -0.018494 -0.158802 -23.058500
0.000000 0.000000 0.000000 0.000000 0.000000 -0.000000 1.216870 96.066600 -8.814780 87.685700 -9.615980 -9.392800 15.735700 0.000005 -0.000001 146.788000 82.091100 -146.874000 8.984550 -0.406207 -0.000000 0.942018 13.234100 -0.281677 16.377300 -0.000001 -0.000001 0.615845 -1.281420 1.410210 6.456720 -0.000001 -0.000000 3.669770 -9.359300 -1.697140 12.994200 -0.242716 4.980390 -84.298200 -11.283200 -62.964800 5.348090 -0.000007 -0.000001 -67.183700 23.874800 29.184600 24.328600 0.000019 0.000005 4.766380 -0.471218 -95.630600 22.291600 -0.000001 0.000005 -6.017960 5.588160 -10.658300 12.994500 -0.242716 -4.980390 89.875500 0.405316 -72.928900 -5.348130 -0.000001 -0.000004 -54.139200 35.986900 -32.349500 -24.328900 0.000322 -0.000009 -0.566359 0.235159 -112.519000 -22.291500 -0.000108 -0.000004 4.259200 5.513640 -7.092880 -2.192480 -6.469440 -0.000000 179.643000 -6.454730 -31.951000 39.081100 -0.000007 -0.000012 0.009507 -0.023849 21.734000 40.985400 -0.000006 -0.000013 2.455660 -2.154840 -67.585200 11.754300 -0.000000 0.000003 -0.006385 -0.074299 -19.601000 -2.192510 6.469440 -0.000001 172.758000 8.250480 -166.042000 -39.081100 -0.002282 -0.040193 0.183278 -0.222992 38.910300 -40.985400 0.000008 0.000006 -1.480480 -1.528700 -30.390800 -11.754300 -0.000006 -0.000006 -0.017594 -0.153577 -22.843500
0.000000 0.000000 0.000000 0.000000 0.000000 -0.000000 0.565481 95.390600 4.893420 84.680900 -10.186800 -9.057190 15.735700 0.000005 -0.000001 148.232000 82.014900 -147.682000 8.984550 -0.406207 -0.000000 0.606333 13.538600 1.030760 16.377300 -0.000001 -0.000001 0.329602 -0.741448 1.023350 6.456720 -0.000001 -0.000000 3.078140 -9.197170 -1.096660 12.994200 -0.242716 4.980390 -84.070200 -11.012700 -61.465700 5.348090 -0.000007 -0.000001 -67.246600 21.463900 25.591000 24.328600 0.000019 0.000005 6.899370 -0.917572 -97.538500 22.291600 -0.000001 0.000005 -6.193880 5.581380 -10.286000 12.994500 -0.242716 -4.980390 90.069100 -0.232869 -73.471900 -5.348130 -0.000001 -0.000004 -58.508500 38.225900 -26.165600 -24.328900 0.000322 -0.000009 0.738669 -0.211852 -106.027000 -22.291500 -0.000108 -0.000004 5.067720 5.516780 -7.225330 -2.192480 -6.469440 -0.000000 -177.235000 -8.466030 -24.920800 39.081100 -0.000007 -0.000012 -0.000001 0.017747 0.000000 40.985400 -0.000006 -0.000013 -1.708190 -1.869880 -70.562600 11.754300 -0.000000 0.000003 -0.008779 -0.094285 -20.417000 -2.192510 6.469440 -0.000001 177.844000 3.936430 -167.155000 -39.081100 -0.002282 -0.040193 0.264469 -0.189271 54.076300 -40.985400 0.000008 0.000006 1.450930 -5.327560 -30.241800 -11.754300 -0.000006 -0.000006 -0.017391 -0.152385 -22.794500
0.000000 0.000000 0.000000 0.000000 0.000000 -0.000000 0.338608 93.773500 18.091200 85.247000 -9.223960 -8.667130 15.735700 0.000005 -0.000001 143.853000 82.614900 -143.763000 8.984550 -0.406207 -0.000000 0.964826 11.917000 0.079684 16.377300 -0.000001 -0.000001 -0.190933 -0.541413 1.091640 6.456720 -0.000001 -0.000000 1.811670 -8.267140 -0.581727 12.994200 -0.242716 4.980390 -84.552800 -9.942250 -61.088000 5.348090 -0.000007 -0.000001 -67.829400 18.503100 20.739500 24.328600 0.000019 0.000005 9.377050 -1.414850 -98.503400 22.291600 -0.000001 0.000005 -5.967710 5.578200 -10.115200 12.994500 -0.242716 -4.980390 89.964800 0.118121 -73.425600 -5.348130 -0.000001 -0.000004 -62.267400 38.894400 -19.824100 -24.328900 0.000322 -0.000009 1.869490 -0.260290 -97.946400 -22.291500 -0.000108 -0.000004 6.595050 5.514420 -7.127090 -2.192480 -6.469440 -0.000000 179.546000 -13.205600 -25.692600 39.081100 -0.000007 -0.000012 -0.000001 0.058725 0.000008 40.985400 -0.000006 -0.000013 -9.719740 -2.366980 -71.370200 11.754300 -0.000000 0.000003 -0.008584 -0.092741 -20.353900 -2.192510 6.469440 -0.000001 178.718000 3.827850 -171.969000 -39.081100 -0.002282 -0.040193 0.409635 -0.119424 73.631200 -40.985400 0.000008 0.000006 1.679890 -6.533250 -29.907600 -11.754300 -0.000006 -0.000006 -0.017352 -0.152154 -22.785000
0.000000 0.000000 0.000000 0.000000 0.000000 -0.000000 0.297190 90.936700 30.587500 87.505300 -6.542990 -7.524740 15.735700 0.000005 -0.000001 131.785000 83.301600 -132.545000 8.984550 -0.406207 -0.000000 2.309860 8.956410 -1.700700 16.377300 -0.000001 -0.000001 -1.170630 -1.061660 1.415440 6.456720 -0.000001 -0.000000 0.356399 -6.956920 0.123406 12.994200 -0.242716 4.980390 -85.883200 -7.828900 -62.150200 5.348090 -0.000007 -0.000001 -67.825900 16.402000 14.923100 24.328600 0.000019 0.000005 10.148500 -1.825550 -100.092000 22.291600 -0.000001 0.000005 -4.794030 5.600790 -11.378600 12.994500 -0.242716 -4.980390 89.585100 1.368310 -73.133900 -5.348130 -0.000001 -0.000004 -64.966100 37.482600 -12.756400 -24.328900 0.000322 -0.000009 2.959040 -0.012057 -90.238800 -22.291500 -0.000108 -0.000004 7.700430 5.512500 -7.045100 -2.192480 -6.469440 -0.000000 175.517000 -10.842400 -31.715900 39.081100 -0.000007 -0.000012 0.135132 -0.406973 18.368500 40.985400 -0.000006 -0.000013 3.840660 -5.186420 -74.291600 11.754300 -0.000000 0.000003 -0.010412 -0.106698 -20.924500 -2.192510 6.469440 -0.000001 177.411000 6.808160 -179.021000 -39.081100 -0.002282 -0.040193 0.603127 0.049617 94.736900 -40.985400 0.000008 0.000006 1.576780 -7.828290 -28.042500 -11.754300 -0.000006 -0.000006 -0.018818 -0.160652 -23.134600
